HIERARCHY
ROOT HipCenter
{
    OFFSET 0.0 0.0 -0.0
    CHANNELS 6 Xposition Yposition Zposition Zrotation Xrotation Yrotation
    JOINT Spine
    {
        OFFSET 0.0 12.037975311279297 0.0
        CHANNELS 3 Zrotation Xrotation Yrotation
        JOINT ShoulderCenter
        {
            OFFSET 0.0 31.320415496826172 0.0
            CHANNELS 3 Zrotation Xrotation Yrotation
            JOINT LeftShoulder
            {
                OFFSET 17.0072021484375 0.0 0.0
                CHANNELS 3 Zrotation Xrotation Yrotation
                JOINT LeftElbow
                {
                    OFFSET 30.428159713745117 0.0 0.0
                    CHANNELS 3 Zrotation Xrotation Yrotation
                    JOINT LeftWrist
                    {
                        OFFSET 26.31372833251953 0.0 0.0
                        CHANNELS 3 Zrotation Xrotation Yrotation
                        JOINT LeftHand
                        {
                            OFFSET 2.592339515686035 0.0 0.0
                            CHANNELS 3 Zrotation Xrotation Yrotation
                            End Site
                            {
                                OFFSET 1.036935806274414 0.0 0.0
                            }
                        }
                    }
                }
            }
            JOINT RightShoulder
            {
                OFFSET -17.0072021484375 0.0 0.0
                CHANNELS 3 Zrotation Xrotation Yrotation
                JOINT RightElbow
                {
                    OFFSET -30.428159713745117 0.0 0.0
                    CHANNELS 3 Zrotation Xrotation Yrotation
                    JOINT RightWrist
                    {
                        OFFSET -26.31372833251953 0.0 0.0
                        CHANNELS 3 Zrotation Xrotation Yrotation
                        JOINT RightHand
                        {
                            OFFSET -2.592339515686035 0.0 0.0
                            CHANNELS 3 Zrotation Xrotation Yrotation
                            End Site
                            {
                                OFFSET -1.036935806274414 0.0 0.0
                            }
                        }
                    }
                }
            }
            End Site
            {
                OFFSET 0.0 12.528166770935059 0.0
            }
        }
    }
    JOINT LeftHip
    {
        OFFSET 16.76260757446289 0.0 0.0
        CHANNELS 3 Zrotation Xrotation Yrotation
        JOINT LeftKnee
        {
            OFFSET 0.0 -34.99705505371094 0.0
            CHANNELS 3 Zrotation Xrotation Yrotation
            JOINT LeftAnkle
            {
                OFFSET 0.0 -41.176612854003906 0.0
                CHANNELS 3 Zrotation Xrotation Yrotation
                JOINT LeftFoot
                {
                    OFFSET 0.0 -12.279211044311523 0.0
                    CHANNELS 3 Zrotation Xrotation Yrotation
                    End Site
                    {
                        OFFSET 0.0 0.0 4.911684513092041
                    }
                }
            }
        }
    }
    JOINT RightHip
    {
        OFFSET -16.76260757446289 0.0 0.0
        CHANNELS 3 Zrotation Xrotation Yrotation
        JOINT RightKnee
        {
            OFFSET 0.0 -34.99705505371094 0.0
            CHANNELS 3 Zrotation Xrotation Yrotation
            JOINT RightAnkle
            {
                OFFSET 0.0 -41.176612854003906 0.0
                CHANNELS 3 Zrotation Xrotation Yrotation
                JOINT RightFoot
                {
                    OFFSET 0.0 -12.279211044311523 0.0
                    CHANNELS 3 Zrotation Xrotation Yrotation
                    End Site
                    {
                        OFFSET 0.0 0.0 4.911684513092041
                    }
                }
            }
        }
    }
}
MOTION
Frames: 10
Frame Time: 0.03333333333333333
56.19999694824219 -56.0 150.1999969482422 63.43484566535012 -81.4510833857726 -117.87267069766877 13.139639003572123 -6.833548277304147 1.5577786791575996 -4.5956720752617577e-07 -2.1509397940336896e-06 -4.187632391475981 118.04809146161791 8.367290090350147 -103.06108598140216 6.617997832227961e-06 3.072683124563132e-06 27.88436554379691 2.375381935217806e-06 -45.74862348142407 86.94145487976726 3.1805546814635176e-15 8.827812596100317e-32 3.1805546814635176e-15 -111.97170714369406 4.0600227788779 110.20283507932014 -2.2534039050088214e-06 3.28407353994602e-06 -27.250715790643184 -4.0656070989701185e-06 -79.83050095132317 -80.05650809787737 -1.5902773407317584e-15 -4.4139062980501586e-32 3.1805546814635168e-15 -29.380032503843186 -77.65987017109107 -13.669689823133163 107.44150124256728 63.96103651716373 -139.86762465711766 24.66596080262968 -71.03968592372074 40.56094388592929 -5.168401357378215e-15 6.3611093629270335e-15 1.5902773407317588e-15 -174.7064927456221 -58.93912909312527 147.19649289384347 -127.79702731814616 40.30798472509953 156.7173832307942 -4.769125512185789 -9.64396908230537 -5.469834243473889 0.0 0.0 2.3854160110976376e-15
56.599998474121094 -56.099998474121094 149.8000030517578 57.99455296068657 -80.99050128071111 -122.06469320312146 12.78576879102848 -5.997234628035005 1.4413765364033015 2.3702088028794594e-07 -4.7438463551792425e-07 -5.1065520788726975 118.81593366196776 8.200212745466988 -103.17771907228072 -3.447747025535652e-06 -4.03025461422634e-06 27.70733043883078 -7.076766132407256e-06 -48.70551476313548 87.61734295852904 -6.3611093629270335e-15 -6.3611093629270335e-15 -3.1805546814635168e-15 -112.3974145405881 4.019185158179564 110.40666423573023 -2.5937455602158104e-06 2.0178737369120654e-06 -27.304514328144037 4.5708934607389307e-07 -79.90914226385986 -82.54189512802242 1.5902773407317584e-15 2.2069531490250793e-32 1.5902773407317584e-15 -29.320702761758497 -76.04901086953011 -13.585657518401993 105.8567970443213 63.79803305459848 -138.06896876481056 22.24661687366926 -70.91378799022003 38.85816237524818 -4.770832022195275e-15 -6.3611093629270335e-15 -2.648343778830095e-31 -173.14241855769157 -56.9067505700709 148.72023835921368 -130.916866468705 39.8945850157816 159.3170634463303 -4.905231450647797 -9.86796687671504 -5.165087008780448 3.1805546814635168e-15 1.1034765745125397e-31 3.975693351829396e-15
57.099998474121094 -56.19999694824219 149.1999969482422 58.57050788459336 -79.86421618905494 -120.05898316795698 13.810968611755758 -5.809371556281896 1.52842260065573 -5.688606642046475e-07 -3.137704201268814e-06 -6.34991201552225 118.49849013887626 7.937273991673722 -103.36723555003427 -2.8697326631611512e-06 2.0174478860413193e-06 27.38628492708117 9.056556253904573e-07 -48.12277467056929 90.22645349258404 -9.54166404439055e-15 -1.2722218725854067e-14 -1.059337511532038e-30 -111.97655312471775 4.079860235050245 110.73713259424733 6.893764029885863e-06 3.327750614407077e-06 -27.652880437688722 3.2701846494599985e-05 -81.06433435586091 -83.26069993119958 0.0 -6.3611093629270335e-15 0.0 -28.486580580167903 -74.78093020349017 -13.535255393108079 103.7620574559323 63.575184899620815 -136.1088871271183 19.919011631195307 -70.22818755792025 37.239238211680274 -2.782985346280577e-15 6.3611093629270335e-15 1.5448672043175555e-31 -171.06038215905724 -55.61067723858222 149.91651314847502 -132.64638432089595 39.50981145927605 161.2750209038475 -4.748894432872263 -9.020720826567132 -4.376865398126342 0.0 6.361109362927032e-15 0.0
57.599998474121094 -56.400001525878906 148.59999084472656 57.724269127247894 -79.21754426916586 -119.40818558959741 14.143022135644632 -5.941854718846235 1.7084634321687298 1.3284204629311035e-07 7.314497244667176e-06 -7.775707409993035 118.31348992666544 7.618238659463152 -104.04684137884492 -1.3926993148940124e-06 -2.2695471731243554e-06 27.402445104390424 179.9999996455776 -54.30544488518242 -90.1130325182579 0.0 0.0 0.0 -112.3262931742443 3.811125037076158 111.58356246540961 1.87140935696463e-06 5.537722925726313e-07 -28.036637639655723 4.261145959065967e-05 -80.81218891797673 -85.7556519430978 3.1805546814635176e-15 0.0 0.0 -27.91707865746445 -73.6481823853293 -13.079756843289422 102.24138327230423 63.25325443679679 -135.0856777137159 21.983326612485673 -69.9022199683898 39.7911811161404 3.975693351829397e-16 5.517382872562698e-33 1.5902773407317588e-15 -169.771538478342 -55.51292855622108 151.56144405429674 -133.4830552212706 39.68584972486364 162.88514894575744 -3.7118927179323644 -8.064137052729123 -3.447190819536651 0.0 6.3611093629270335e-15 0.0
58.20000076293945 -56.69999694824219 148.0 55.00800752743766 -78.31093625745325 -120.58093557099406 14.29678618922476 -5.592839044027991 1.6949932291963736 -2.39793988633887e-07 1.4170684006249217e-06 -9.276084704169417 119.17270790507249 7.307333836952365 -104.7183280810724 -3.0383378117903337e-06 4.841338610675465e-06 27.222580950871446 -179.99999351787304 -53.7582249272717 -90.16286184331861 5.963540027744094e-16 2.069018577211012e-33 3.975693351829396e-16 -111.74349376513823 3.4859912909874895 112.22663745139246 5.432079454685002e-06 -1.4892155560676955e-06 -27.92709545342676 1.4210865007347263e-05 -80.31490939564348 -86.21575577836468 -1.5902773407317584e-15 -2.2069531490250793e-32 1.5902773407317584e-15 -27.020850989214818 -72.25288130455158 -11.965133016358577 101.00183848294598 62.547869016349374 -133.87407909223037 21.634439324669053 -69.6066920539609 40.326940148879885 1.5902773407317584e-15 2.2069531490250793e-32 1.5902773407317584e-15 -168.70429198222044 -57.09478420561576 153.2364574772251 -133.80854994007095 39.91519189289715 163.84668594206255 -3.7006601365200624 -7.902459651990585 -3.19464277833626 -3.180554681463516e-15 8.827812596100317e-32 -3.180554681463516e-15
58.89999771118164 -57.099998474121094 147.39999389648438 53.97265425338622 -77.01821529058027 -119.79291499594885 14.865508289648343 -5.750681769626301 1.852644543631506 6.959783484811913e-07 3.5296155390347514e-06 -11.128583285233534 119.8534054462387 6.503862565915195 -105.67355544074938 -6.867811264865868e-09 -6.43164823890346e-07 26.856630725055005 -179.9999997845396 -56.50749883096359 -89.22952574423505 -1.987846675914698e-16 -1.034509288605506e-33 5.963540027744094e-16 -112.3668139542716 2.84391874079475 113.61828582531811 3.876931899992549e-06 1.5005430938346445e-06 -28.39774123463898 1.754025174783707e-07 -80.99112280272415 -87.02015595378022 -3.1805546814635168e-15 1.2722218725854065e-14 3.1805546814635168e-15 -25.798068892671825 -71.00069112110013 -10.481311323938511 99.686305786948 61.300468516954915 -132.8914121154519 22.30403065004011 -69.01996907145607 42.199188180005436 -4.770832022195275e-15 0.0 0.0 -165.78262277623813 -59.30912024680853 156.3289601536977 -134.7671209478 40.15254216283536 165.82235976035906 -5.881852886561681 -10.2060170302255 -4.109310247266325 6.3611093629270335e-15 6.3611093629270335e-15 -3.531125038440127e-31
59.500003814697266 -57.20000457763672 146.5 53.13012984757237 -75.61858187349934 -119.24016706056632 15.653939913879583 -5.256229583215423 1.8050484812402894 7.464306397320121e-08 2.044213628091263e-06 -12.450366990854809 120.80651099385676 6.026276309146258 -106.4914431118391 -1.0004153207247223e-06 3.3634535980754652e-06 27.047474582928253 -179.99999610714087 -56.7472905067338 -87.03854669030638 -1.9878466759146985e-16 1.7241821476758432e-34 -9.939233379573492e-17 -111.89421473047928 2.52992302953112 114.32889559544412 1.9514241284618103e-06 -1.1695122263603512e-06 -28.245869763310647 -1.2349815058728534e-05 -80.1891737069476 -89.58205294892052 4.770832022195274e-15 6.620859447075238e-32 1.5902773407317582e-15 -23.28199970145772 -69.57432476009762 -8.299359074706613 97.54474550717818 60.33714280303617 -131.76957455223402 22.859462787264345 -68.71127802340227 43.849640130446566 -7.951386703658792e-16 0.0 0.0 -162.16094096601293 -62.19950601009861 160.72960531172427 -136.92854506376642 41.00259974997217 168.82679330150344 -9.115780587762924 -13.684097139374378 -5.372985840929136 0.0 0.0 0.0
60.10000228881836 -57.20000457763672 145.39999389648438 52.76506824181603 -74.85325426494943 -119.76957456485646 15.697350929557583 -4.830194953034582 1.755125271818569 -1.0234825171252107e-07 1.706247347216894e-07 -11.761283995794047 121.22711641249813 5.12213965413226 -106.9819684440548 5.528470815940659e-06 -2.798543782259298e-06 27.421425712702256 -179.9999992298693 -55.94991750309692 -89.20145512964305 0.0 0.0 2.484808344893372e-16 -109.9999201265873 2.7901333805160737 115.66401495959663 -7.190374742982524e-07 -3.42363689457685e-07 -28.60010872169644 -7.661490213413727e-07 -30.572264832337066 -90.80718078115014 0.0 6.361109362927033e-15 0.0 -16.807046801704168 -68.93288941618455 -1.6467302095011627 94.62180214850942 59.47056968884858 -131.35405109786825 24.829257664813575 -66.77407353433158 46.29605704802494 -3.975693351829396e-15 0.0 0.0 -163.2720181901174 -65.39854133329698 162.1081161677278 -139.64806262677965 43.917929682270184 170.65118452951018 -11.807629568456907 -17.46983234933351 -6.704185628579687 3.1805546814635168e-15 0.0 0.0
60.5 -57.099998474121094 144.39999389648438 53.84177518241887 -74.48494773347481 -119.88841309326386 15.689375984851884 -4.724385979350809 1.7766555495707594 -2.1437654314576514e-08 2.837715347580658e-06 -10.156677078605167 120.73653788250219 4.221730100414149 -107.08621656672327 -1.7727783880927513e-07 2.556219931860847e-06 27.084069118986847 179.99999353425943 -55.70943384576527 -86.30378019270344 0.0 0.0 0.0 -108.4431934140969 3.149292298858841 117.47661924899614 3.060843559851726e-07 7.265820510970854e-07 -29.14431717752742 2.9113036374340704e-06 -29.53460243555276 -91.62201740685647 3.180554681463516e-15 0.0 0.0 -8.716752652370971 -68.377108070664 5.934503720386166 91.74917559276035 59.304432584787236 -131.9433679962572 29.00290141103448 -66.06353248324838 50.319456980624366 4.770832022195274e-15 0.0 0.0 -169.09666466929144 -68.01005843153919 158.84119326044603 -141.68385941392762 47.16947751549604 171.10555987256762 -12.143089626204677 -20.478449630716117 -7.37381539793543 3.1805546814635168e-15 6.3611093629270335e-15 -1.7655625192200634e-31
60.79999923706055 -57.099998474121094 143.60000610351562 53.84178355047651 -74.48495343065333 -121.19079607052718 15.033078874987769 -4.438269833753617 1.6306153483837509 -3.6528596747802415e-07 3.1663958644935057e-06 -8.677829989247636 121.1173672801931 3.724596666732021 -107.74795617860349 3.3267858293466696e-06 -2.623464063289657e-06 27.37517472221117 179.99998911999216 -56.09212975116702 -86.2930996564762 0.0 -6.361109362927033e-15 0.0 -107.72556469511922 2.7340411206696045 119.07016504514628 1.9436831147313804e-06 1.2635082287602115e-06 -29.52531673668106 -9.007586617543852e-07 -31.496296652221886 -90.62951225344888 6.3611093629270335e-15 -6.3611093629270335e-15 -3.1805546814635164e-15 -2.5010232339752805 -67.26159409822739 10.774431994843907 88.67748648332392 60.56775802629236 -131.07825152542375 29.260036258135493 -64.44284807703401 49.413541152360644 3.1805546814635168e-15 0.0 0.0 -176.194697153068 -69.69124615679891 154.07131421189828 -143.55271389185913 50.04879618147539 171.14716059641205 -12.001421062571424 -20.223961450763138 -6.920582419940137 -3.1805546814635168e-15 -4.4139062980501586e-32 1.5902773407317584e-15
